<svg xmlns="http://www.w3.org/2000/svg" xmlns:xlink="http://www.w3.org/1999/xlink" width="100" height="100" viewBox="0 0 100 100"><g><g transform="translate(50 50) scale(0.69 0.69) rotate(0) translate(-50 -50)" style="fill:#000000"><svg fill="#000000" xmlns="http://www.w3.org/2000/svg" xmlns:ooo="http://xml.openoffice.org/svg/export" xmlns:xlink="http://www.w3.org/1999/xlink" xmlns:presentation="http://sun.com/xmlns/staroffice/presentation" xmlns:smil="http://www.w3.org/2001/SMIL20/" xmlns:anim="urn:oasis:names:tc:opendocument:xmlns:animation:1.0" version="1.2" viewBox="0 0 2540 2540" preserveAspectRatio="xMidYMid" fill-rule="evenodd" stroke-width="28.222" stroke-linejoin="round" xml:space="preserve" x="0px" y="0px"><defs class="ClipPathGroup"><clipPath id="a" clipPathUnits="userSpaceOnUse"><rect x="0" y="0" width="2540" height="2540"></rect></clipPath></defs><g class="SlideGroup"><g><g><g class="Slide" clip-path="url(#a)"><g class="Page"><g class="com.sun.star.drawing.ClosedBezierShape"><g><rect class="BoundingBox" stroke="none" fill="none" x="92" y="95" width="2363" height="2363"></rect><path fill="#000000" stroke="none" d="M 1739,185 C 1882,244 2008,329 2114,435 2220,541 2305,667 2364,810 2422,952 2454,1109 2454,1276 2454,1443 2422,1600 2364,1742 2305,1885 2220,2011 2114,2117 2008,2223 1882,2308 1739,2367 1597,2425 1440,2457 1273,2457 1106,2457 949,2425 807,2367 664,2308 538,2223 432,2117 326,2011 241,1885 182,1742 124,1600 92,1443 92,1276 92,1109 124,952 182,810 241,667 326,541 432,435 538,329 664,244 807,185 949,127 1106,95 1273,95 1440,95 1597,127 1739,185 Z M 1711,2296 C 1843,2242 1962,2162 2061,2064 2159,1965 2239,1846 2293,1714 2348,1580 2378,1433 2378,1276 2378,1119 2348,972 2293,838 2239,706 2159,587 2061,488 1962,390 1843,310 1711,256 1577,201 1430,171 1273,171 1116,171 969,201 835,256 703,310 584,390 485,488 387,587 307,706 253,838 198,972 168,1119 168,1276 168,1433 198,1580 253,1714 307,1846 387,1965 485,2064 584,2162 703,2242 835,2296 969,2351 1116,2381 1273,2381 1430,2381 1577,2351 1711,2296 Z"></path></g></g><g class="com.sun.star.drawing.ClosedBezierShape"><g><rect class="BoundingBox" stroke="none" fill="none" x="571" y="728" width="1399" height="1082"></rect><path fill="#000000" stroke="none" d="M 692,939 C 688,939 685,940 682,942 676,945 669,949 664,955 659,960 654,966 651,973 650,976 649,979 648,982 647,985 647,988 647,991 L 647,1132 1201,1284 C 1204,1284 1208,1284 1211,1284 L 1329,1284 C 1333,1284 1336,1284 1340,1284 L 1893,1133 1893,991 C 1893,988 1893,985 1892,982 1891,979 1890,976 1889,973 1886,966 1881,960 1876,955 1870,949 1864,945 1857,942 1854,940 1851,939 1848,939 1845,938 1842,938 1839,938 L 700,938 C 697,938 694,938 692,939 Z M 647,1679 C 647,1681 647,1684 648,1687 649,1690 650,1693 651,1696 654,1703 659,1710 664,1715 670,1720 676,1725 683,1728 686,1730 689,1731 692,1731 694,1732 697,1733 700,1733 L 1839,1733 C 1842,1733 1845,1732 1847,1731 1851,1731 1854,1730 1857,1728 1864,1725 1870,1720 1875,1715 1881,1709 1885,1703 1889,1696 1890,1693 1891,1690 1892,1687 1893,1684 1893,1681 1893,1679 L 1893,1212 1411,1343 C 1412,1346 1413,1349 1414,1351 1415,1357 1416,1363 1416,1370 L 1416,1404 C 1416,1410 1415,1416 1414,1422 1412,1427 1411,1432 1408,1438 1404,1447 1397,1456 1389,1464 1382,1472 1373,1478 1363,1483 1358,1485 1352,1487 1347,1488 1341,1490 1335,1491 1329,1491 L 1211,1491 C 1205,1491 1199,1490 1193,1488 1187,1487 1182,1485 1177,1482 1167,1478 1158,1471 1151,1463 1143,1456 1137,1447 1133,1437 1130,1432 1128,1427 1127,1421 1126,1415 1125,1409 1125,1404 L 1125,1370 C 1125,1364 1126,1358 1127,1352 1128,1349 1129,1346 1130,1343 L 647,1211 647,1679 Z M 1966,1704 C 1964,1713 1961,1721 1958,1728 1951,1743 1941,1757 1929,1769 1917,1780 1904,1790 1889,1797 1881,1801 1873,1803 1865,1805 1856,1807 1848,1809 1839,1809 L 700,1809 C 691,1809 683,1807 674,1805 666,1803 658,1801 650,1797 636,1790 622,1780 610,1768 599,1757 589,1743 582,1728 579,1720 576,1712 574,1704 572,1696 571,1687 571,1679 L 571,991 C 571,982 572,973 574,965 576,957 579,949 582,941 589,926 599,913 610,901 622,889 636,880 650,873 658,869 666,866 674,865 683,863 691,862 700,862 L 974,862 974,823 C 974,816 975,810 976,803 977,797 979,791 982,786 987,775 994,765 1002,757 1011,748 1021,741 1031,736 1037,734 1043,732 1048,730 1055,729 1061,728 1068,728 L 1471,728 C 1478,728 1484,729 1491,730 1496,732 1502,734 1508,736 1518,741 1528,748 1537,757 1545,765 1553,775 1558,785 1560,791 1562,797 1564,803 1565,809 1566,816 1566,823 L 1566,862 1839,862 C 1848,862 1856,863 1865,865 1873,866 1881,869 1889,873 1903,879 1917,889 1929,901 1941,912 1951,926 1957,941 1961,948 1964,956 1966,965 1968,973 1969,982 1969,991 L 1969,1679 C 1969,1687 1968,1696 1966,1704 Z M 1492,862 L 1492,823 C 1492,822 1492,821 1492,821 1491,820 1491,819 1491,818 1489,815 1487,812 1485,810 1483,808 1480,806 1477,804 1476,804 1475,803 1474,803 1473,803 1472,803 1471,803 L 1068,803 C 1067,803 1066,803 1066,803 1065,803 1064,804 1062,804 1060,806 1057,808 1055,810 1053,812 1051,815 1049,817 1049,819 1049,820 1048,821 1048,821 1048,822 1048,823 L 1048,862 1492,862 Z M 1211,1360 C 1210,1360 1210,1360 1209,1360 1208,1361 1206,1362 1205,1363 1204,1365 1202,1366 1202,1368 1201,1368 1201,1369 1201,1369 L 1201,1370 1201,1404 C 1201,1404 1201,1405 1202,1405 1203,1407 1204,1409 1205,1411 1207,1412 1208,1413 1210,1414 L 1211,1414 1211,1415 1329,1415 1329,1414 1330,1414 C 1332,1413 1334,1412 1336,1410 1337,1409 1338,1407 1339,1405 1340,1404 1340,1404 1340,1403 L 1340,1370 C 1340,1369 1340,1369 1340,1368 1339,1367 1337,1365 1336,1364 1334,1362 1333,1361 1331,1360 1330,1360 1330,1360 1329,1360 L 1211,1360 Z"></path></g></g></g></g></g></g></g></svg></g></g></svg>